<?xml version="1.0" standalone="no"?>
<!DOCTYPE svg PUBLIC "-//W3C//DTD SVG 20010904//EN"
 "http://www.w3.org/TR/2001/REC-SVG-20010904/DTD/svg10.dtd">
<svg version="1.0" xmlns="http://www.w3.org/2000/svg"
 width="512.000000pt" height="512.000000pt" viewBox="0 0 512.000000 512.000000"
 preserveAspectRatio="xMidYMid meet">

<g transform="translate(0.000000,512.000000) scale(0.100000,-0.100000)"
fill="#619626" stroke="none">
<path d="M2365 4436 c-33 -15 -70 -47 -78 -68 -4 -10 -7 -10 -15 1 -8 11 -14
8 -28 -15 -10 -16 -24 -32 -30 -36 -12 -8 -59 -108 -56 -120 1 -5 -8 -8 -20
-8 -22 0 -22 0 2 -17 43 -30 47 -40 36 -97 -13 -60 -39 -106 -62 -106 -8 0
-12 -4 -9 -10 4 -6 -5 -10 -20 -10 -15 0 -48 -14 -74 -32 -56 -38 -91 -45 -84
-17 3 11 0 33 -7 49 -18 44 10 123 63 178 23 23 36 42 30 42 -16 0 -103 -99
-103 -119 0 -12 -5 -10 -20 9 -16 20 -20 22 -20 8 0 -21 -11 -23 -27 -7 -18
18 -35 1 -22 -22 14 -27 3 -37 -22 -21 -23 15 -59 0 -59 -24 0 -8 -7 -17 -15
-20 -8 -3 -24 -21 -35 -39 -18 -29 -19 -37 -8 -54 15 -24 4 -39 -16 -22 -10 9
-16 9 -21 1 -4 -6 1 -18 11 -26 18 -13 17 -15 -14 -44 -18 -17 -30 -35 -27
-40 3 -6 2 -10 -4 -10 -16 0 -54 -42 -78 -87 -21 -39 -31 -64 -62 -168 -13
-42 -11 -160 4 -205 8 -23 7 -24 -9 -11 -36 30 -59 111 -45 161 3 11 -3 14
-21 13 -45 -3 -163 -32 -257 -64 -89 -29 -163 -41 -368 -58 -122 -11 -378 -59
-401 -76 -12 -8 -15 -20 -11 -36 11 -44 59 -68 184 -94 155 -32 176 -39 253
-80 321 -173 456 -222 654 -233 l109 -7 19 -52 c15 -38 40 -71 94 -123 41 -40
74 -77 74 -84 -1 -22 -50 -48 -83 -43 -54 8 -83 -10 -113 -68 -16 -29 -40 -60
-55 -69 -78 -46 -171 -182 -219 -320 -26 -77 -19 -84 10 -9 46 120 86 188 152
257 36 39 69 68 73 65 3 -4 1 -35 -5 -70 -13 -82 -13 -172 0 -240 13 -68 13
-142 1 -349 -6 -91 -14 -272 -17 -403 -7 -220 -6 -238 10 -250 13 -10 20 -36
27 -99 10 -96 16 -149 25 -222 9 -74 -10 -49 -40 51 -14 49 -36 120 -47 158
-12 39 -33 97 -46 129 -74 172 -103 318 -104 519 -1 137 14 252 52 392 21 78
22 88 12 82 -16 -10 -61 -160 -77 -257 -45 -264 -30 -411 87 -835 36 -130 69
-274 65 -285 -2 -5 -28 24 -58 64 -122 162 -222 286 -231 286 -13 0 15 -47 74
-123 93 -122 92 -121 71 -109 -10 5 -77 31 -149 57 -165 60 -215 82 -222 101
-4 10 15 36 53 75 32 32 53 59 46 59 -18 0 -91 -69 -108 -103 -14 -26 -14 -31
1 -47 21 -23 170 -96 285 -139 92 -35 113 -49 148 -98 15 -21 19 -34 12 -38
-12 -8 -79 2 -95 14 -5 4 -23 13 -39 20 -25 10 -28 10 -18 -2 10 -12 3 -15
-40 -21 -29 -3 -109 -6 -178 -6 -136 0 -203 -8 -194 -21 3 -5 866 -9 1978 -9
1700 0 1975 2 1985 14 9 11 11 109 8 388 l-3 373 -76 215 c-41 118 -99 269
-128 335 -49 112 -53 127 -60 226 -6 93 -11 115 -41 174 -47 95 -79 111 -257
128 -112 11 -137 17 -164 37 -100 74 -130 89 -225 110 -195 43 -208 48 -303
108 l-95 60 1 116 c0 92 4 120 16 133 9 8 60 24 115 35 79 16 124 34 233 89
148 75 218 131 265 215 228 404 304 489 463 514 72 12 85 25 72 70 -19 68
-113 96 -286 86 -127 -7 -188 -25 -272 -81 -30 -19 -56 -35 -59 -35 -3 0 -22
-13 -42 -29 -77 -61 -181 -104 -284 -117 -26 -4 -50 -11 -54 -17 -10 -16 82
-2 170 26 54 17 112 48 190 100 184 122 199 127 374 130 127 2 153 -1 186 -17
20 -10 40 -23 43 -28 10 -16 -5 -22 -29 -10 -88 43 -291 25 -397 -35 -25 -14
-78 -50 -118 -80 -40 -30 -102 -69 -137 -87 -35 -19 -80 -47 -102 -64 -50 -39
-263 -113 -263 -91 0 5 5 9 12 9 6 0 9 2 6 5 -9 9 -39 -7 -35 -19 2 -6 -15
-32 -39 -58 -24 -26 -44 -53 -45 -60 0 -7 -4 -4 -8 7 -7 18 -10 17 -25 -14
-16 -29 -20 -32 -32 -19 -13 13 -12 19 3 54 10 22 24 46 31 54 7 8 22 31 35
50 13 21 44 46 77 64 l55 28 -48 -6 c-41 -5 -48 -3 -45 11 4 22 24 31 83 39
39 5 46 8 30 15 -36 14 -71 9 -121 -17 -27 -14 -54 -30 -61 -35 -7 -7 -12 -6
-15 2 -7 20 -45 -8 -64 -46 -8 -19 -14 -51 -13 -72 2 -27 -5 -55 -27 -98 -17
-33 -34 -77 -38 -97 l-7 -38 38 35 c21 19 45 34 53 33 21 -4 24 -42 4 -62 -11
-11 -15 -27 -12 -48 3 -17 -3 -54 -13 -82 -11 -28 -19 -52 -19 -54 0 -2 -7 -2
-15 2 -11 4 -15 -1 -15 -18 0 -30 -42 -87 -116 -157 -83 -78 -92 -82 -165 -69
-33 6 -67 14 -76 17 -11 4 -14 2 -11 -8 3 -8 12 -14 20 -13 8 1 15 -9 16 -21
2 -22 0 -21 -32 9 -18 17 -57 50 -85 74 -28 24 -51 50 -51 59 0 9 -20 35 -44
58 l-44 41 35 -4 c27 -3 34 -1 31 9 -3 8 -13 19 -24 24 -54 28 -92 57 -104 81
-14 24 -13 28 12 49 41 35 124 55 230 55 129 0 146 -16 22 -22 -57 -3 -121
-12 -152 -23 -48 -16 -51 -19 -35 -32 17 -14 17 -14 -2 -7 -35 12 -59 10 -63
-7 -3 -17 38 -33 122 -48 70 -13 152 18 223 83 49 44 55 47 59 29 3 -11 17
-26 30 -32 41 -19 38 -36 -18 -90 -34 -33 -45 -49 -31 -44 12 5 41 26 65 49
24 22 51 43 61 47 24 9 21 22 -10 46 -14 12 -23 24 -20 28 4 3 14 0 24 -8 15
-12 16 -12 10 3 -3 9 1 22 10 30 14 11 15 9 9 -20 -8 -35 -1 -39 31 -17 14 10
26 34 33 73 7 31 21 73 31 93 20 40 23 60 21 137 -2 43 -5 52 -20 52 -21 0
-62 35 -62 52 0 9 3 9 12 0 17 -17 73 -15 88 3 11 13 8 15 -18 15 -36 0 -62 9
-62 21 0 5 9 9 20 9 11 0 20 4 20 8 0 5 -9 17 -20 27 -11 10 -20 24 -20 32 0
7 -4 13 -9 13 -9 0 -24 30 -18 37 2 2 26 -12 53 -30 75 -51 94 -52 39 -2 -27
25 -66 61 -86 80 -26 25 -46 35 -68 35 -38 0 -41 17 -3 22 43 5 32 22 -18 28
-51 6 -70 15 -70 34 0 11 -40 26 -71 26 -14 0 -10 -20 4 -20 6 -1 23 -10 36
-20 20 -17 21 -22 10 -36 -12 -15 -10 -16 18 -10 25 6 34 3 42 -12 23 -44 13
-101 -23 -131 -12 -10 -24 -8 -65 9 -57 25 -93 22 -44 -3 17 -9 40 -30 50 -47
13 -22 25 -30 45 -30 27 0 37 -13 20 -24 -5 -3 -7 -19 -4 -37 4 -30 3 -32 -22
-27 -14 3 -26 2 -26 -2 0 -3 -9 -15 -19 -27 l-19 -20 -59 28 c-55 27 -62 28
-143 20 -47 -4 -87 -6 -90 -4 -3 3 3 10 12 17 28 20 10 26 -33 11 -60 -21
-126 -71 -166 -126 -35 -46 -73 -64 -87 -41 -5 8 16 109 29 145 4 9 3 17 -3
17 -13 0 -49 -75 -62 -127 -14 -54 -26 -61 -57 -30 -18 17 -27 39 -30 73 -3
27 -12 56 -19 65 -11 12 -13 37 -7 108 7 104 7 105 106 121 39 6 57 3 90 -12
77 -38 80 -54 20 -121 -35 -40 -46 -70 -16 -46 33 26 66 54 77 65 37 35 185
84 254 84 18 0 32 5 32 11 0 12 -54 9 -156 -7 -40 -6 -41 -5 -41 20 0 15 2 24
5 22 10 -10 32 16 32 38 0 15 10 25 38 34 69 24 107 32 162 33 50 1 52 2 25
10 -28 9 -69 7 -152 -8 -49 -8 -43 19 20 83 36 37 60 54 78 54 24 0 132 -49
153 -70 13 -13 43 -13 50 -1 8 12 -55 51 -81 51 -11 0 -28 9 -37 19 -10 11
-31 25 -47 31 -16 7 -29 18 -29 26 0 7 -5 16 -11 20 -21 13 -144 40 -167 36
-26 -4 -20 -22 8 -22 26 0 35 -19 13 -27 -26 -10 -44 -36 -31 -44 6 -4 1 -12
-12 -19 -13 -7 -25 -8 -29 -3 -3 5 -21 15 -38 22 -43 17 -217 11 -235 -8 -11
-12 -9 -13 7 -6 11 5 52 10 91 13 64 4 77 1 125 -24 55 -29 65 -48 41 -76 -6
-8 -9 -18 -5 -21 3 -4 2 -7 -4 -7 -14 0 -48 -32 -56 -52 -4 -13 -1 -18 9 -18
11 0 14 -6 10 -16 -3 -9 -6 -18 -6 -20 0 -2 -7 -4 -15 -4 -16 0 -21 -36 -6
-42 13 -5 24 -48 12 -48 -6 0 -11 6 -11 14 0 7 -7 19 -15 26 -8 7 -15 21 -15
32 0 18 -5 19 -42 14 -191 -27 -178 -41 -192 197 -2 37 0 70 5 73 5 3 9 16 9
29 0 16 17 37 58 70 l57 46 72 -4 c57 -4 71 -3 67 8 -3 7 -22 16 -42 20 -20 3
-46 8 -57 11 -11 2 -33 -2 -50 -10z m403 -187 c-3 -8 -7 -3 -11 10 -4 17 -3
21 5 13 5 -5 8 -16 6 -23z m-561 -161 c-3 -8 -6 -5 -6 6 -1 11 2 17 5 13 3 -3
4 -12 1 -19z m-387 -98 c0 -5 -6 -10 -14 -10 -8 0 -23 -3 -33 -7 -16 -6 -16
-5 -4 10 15 18 51 23 51 7z m71 -67 c14 -42 16 -47 23 -84 5 -23 2 -27 -33
-37 -21 -7 -55 -12 -76 -12 -42 0 -105 -19 -105 -32 0 -10 -2 -10 40 2 19 6
76 11 125 11 58 1 83 4 70 9 -11 5 -17 9 -13 9 3 1 13 4 22 7 12 5 16 -1 16
-24 0 -22 8 -36 26 -49 61 -43 95 -78 124 -129 17 -29 29 -58 25 -64 -8 -12
-47 -4 -99 22 -145 73 -274 60 -376 -38 -31 -29 -63 -66 -71 -81 -8 -16 -18
-31 -24 -35 -12 -9 -35 10 -35 29 0 8 -4 11 -10 8 -32 -20 10 -142 59 -171 17
-10 31 -25 31 -33 0 -26 -94 76 -106 115 -20 63 13 210 67 299 26 44 38 53 75
63 42 11 61 32 29 32 -8 0 -15 7 -15 15 0 8 7 15 15 15 9 0 15 9 15 24 0 14 5
28 10 31 6 3 10 26 10 50 0 33 5 47 19 54 10 6 21 8 23 5 3 -2 20 2 39 10 19
9 46 15 61 16 22 0 29 -7 39 -37z m2534 17 c-3 -5 -12 -10 -18 -10 -7 0 -6 4
3 10 19 12 23 12 15 0z m-2233 -28 c12 -12 39 -226 36 -282 -2 -39 -8 -56 -22
-64 -15 -9 -23 -4 -55 34 -47 58 -119 130 -155 155 l-28 20 23 40 c39 66 116
118 164 110 16 -3 33 -9 37 -13z m967 -49 c12 -24 11 -76 -2 -85 -12 -7 18
-84 38 -96 7 -4 10 -22 7 -44 -3 -29 -9 -38 -23 -38 -13 0 -19 7 -19 23 0 18
2 19 10 7 7 -11 10 -7 10 18 0 17 -4 32 -8 32 -14 0 -32 -23 -32 -42 0 -18
-33 -42 -43 -31 -4 3 0 18 8 32 11 23 11 35 -2 86 -8 33 -17 70 -20 83 -4 16
2 31 17 48 28 28 46 31 59 7z m1003 -180 c-15 -32 -56 -111 -92 -176 -86 -160
-146 -216 -313 -296 -128 -61 -195 -83 -316 -101 -50 -7 -77 -7 -86 0 -21 17
-25 0 -25 -99 0 -123 -19 -203 -56 -243 -52 -55 -168 -142 -172 -130 -2 7 -12
12 -22 12 -23 0 -101 41 -107 57 -3 6 -10 11 -16 9 -7 -1 -9 -1 -4 1 4 3 7 12
7 21 1 12 6 8 15 -10 9 -16 27 -29 45 -33 17 -4 28 -10 26 -14 -2 -3 14 -7 37
-8 37 -1 47 4 82 42 99 105 131 177 142 323 4 58 3 82 -6 82 -13 0 -14 10 -1
30 7 12 11 12 28 -3 17 -16 27 -17 88 -7 76 12 191 47 199 60 3 5 13 6 23 3 9
-3 14 -3 10 2 -4 4 46 44 112 87 134 89 203 159 305 311 14 21 30 35 35 32 5
-3 11 -1 15 5 3 5 1 10 -5 10 -6 0 -9 4 -5 10 3 5 12 7 20 3 11 -3 15 2 15 17
0 18 32 60 46 60 2 0 -9 -26 -24 -57z m-1202 -23 c0 -5 -4 -10 -9 -10 -6 0
-13 5 -16 10 -3 6 1 10 9 10 9 0 16 -4 16 -10z m400 -63 c0 -28 -8 -51 -27
-76 -27 -36 -45 -53 -51 -47 -5 5 31 79 47 95 9 10 11 29 7 60 -5 42 -4 44 9
27 8 -11 15 -38 15 -59z m-508 16 c25 -9 44 -21 42 -27 -2 -6 3 -20 12 -31 12
-16 17 -17 23 -7 7 11 9 10 14 -3 4 -9 3 -14 -2 -11 -11 7 -23 -22 -15 -35 3
-6 12 -6 22 0 13 7 19 3 29 -21 17 -39 9 -47 -20 -22 -21 19 -67 22 -67 4 0
-5 -41 -10 -90 -12 -67 -2 -90 0 -90 10 0 18 -59 14 -107 -8 -39 -17 -43 -17
-43 -3 0 34 42 103 91 148 50 47 51 47 102 41 29 -4 73 -14 99 -23z m278 -98
c0 -37 -5 -51 -26 -70 -15 -14 -31 -25 -35 -25 -16 0 -9 19 11 30 16 8 20 21
20 60 0 38 4 50 15 50 11 0 15 -12 15 -45z m-1205 -15 c4 -6 -8 -10 -30 -10
-22 0 -34 4 -30 10 3 6 17 10 30 10 13 0 27 -4 30 -10z m-235 -14 c0 -3 -4 -8
-10 -11 -5 -3 -10 -1 -10 4 0 6 5 11 10 11 6 0 10 -2 10 -4z m703 -28 c10 -5
17 -17 15 -26 -2 -13 -19 -19 -63 -24 -33 -5 -77 -15 -97 -23 -34 -13 -38 -13
-47 3 -14 24 15 68 53 80 34 10 110 5 139 -10z m-744 -19 c-8 -4 -14 -12 -14
-16 -1 -14 -39 -73 -47 -73 -14 0 -8 16 12 35 11 10 20 24 20 32 0 18 23 42
34 36 4 -3 2 -9 -5 -14z m317 -6 c34 -16 83 -77 72 -89 -10 -9 -38 9 -38 25 0
21 -17 47 -25 39 -4 -3 -2 -15 4 -27 10 -18 8 -21 -26 -26 -63 -11 -73 -16
-73 -34 0 -17 -17 -27 -119 -69 -10 -4 -13 -1 -8 11 8 22 -2 21 -33 -3 -31
-25 -36 -25 -43 -1 -7 28 26 95 75 152 l43 50 66 -5 c37 -2 84 -13 105 -23z
m-586 -47 c0 -8 7 -19 15 -26 8 -7 15 -21 15 -31 0 -16 -8 -19 -55 -19 -30 0
-55 -4 -55 -8 0 -11 36 -27 89 -42 28 -7 55 -26 84 -57 52 -56 61 -75 15 -32
-47 44 -71 51 -173 54 -49 1 -201 7 -336 14 -214 10 -262 10 -365 -3 -65 -9
-122 -16 -126 -16 -4 0 -8 -7 -8 -15 0 -10 10 -15 33 -15 63 -1 270 -63 299
-90 32 -29 210 -117 273 -135 61 -17 134 -41 170 -55 11 -5 82 -14 158 -21
101 -9 137 -16 137 -25 0 -22 -47 -27 -154 -16 -95 9 -267 56 -274 74 -2 4
-10 8 -18 8 -8 0 -50 18 -94 40 -44 22 -85 40 -92 40 -6 0 -39 18 -72 39 -91
60 -144 80 -279 106 -247 49 -249 63 -15 113 95 21 175 32 226 32 109 0 261
24 437 69 83 21 153 36 158 34 4 -2 7 -10 7 -17z m988 -2 c30 -8 28 -24 -3
-24 -14 0 -40 -6 -58 -13 -18 -8 -49 -17 -69 -21 -48 -9 -43 11 10 42 37 22
78 27 120 16z m33 -70 c8 -4 20 -16 28 -27 8 -11 16 -15 20 -9 9 15 82 0 95
-20 8 -13 6 -26 -7 -53 -15 -31 -20 -35 -32 -25 -9 8 -28 10 -47 6 -18 -3 -40
-7 -48 -9 -8 -1 -29 -10 -47 -20 -42 -22 -59 -21 -94 4 -16 11 -29 15 -29 9 0
-6 -10 -11 -22 -10 -44 4 -49 1 -42 -25 4 -15 2 -25 -5 -25 -50 0 14 170 73
195 17 7 42 17 56 22 24 10 75 3 101 -13z m-391 -74 c-8 -5 -26 -10 -38 -10
-27 0 -129 -26 -152 -39 -9 -5 -35 -12 -58 -16 -48 -8 -56 -30 -14 -39 76 -16
147 -10 205 18 33 15 61 25 65 22 7 -7 7 -7 -45 -40 -30 -18 -59 -27 -97 -29
-64 -2 -64 -13 0 -23 31 -4 58 -2 85 9 45 18 46 16 20 -22 -11 -15 -18 -36
-15 -47 3 -11 -2 -33 -10 -49 -9 -17 -16 -40 -16 -52 0 -12 -5 -25 -10 -28 -7
-4 -6 -14 1 -28 9 -18 9 -20 -1 -10 -10 9 -19 6 -40 -15 -26 -26 -129 -72
-161 -72 -8 0 -36 13 -62 30 l-47 30 0 -25 c0 -21 29 -82 57 -120 13 -18 86
-71 121 -89 40 -20 106 -23 127 -6 10 8 15 31 15 71 0 33 4 67 9 77 5 9 14 36
20 59 11 42 101 186 131 211 29 25 59 32 87 21 15 -5 61 -13 103 -16 73 -5 79
-4 149 31 l72 36 62 -48 c34 -27 71 -64 82 -83 18 -30 24 -34 57 -31 52 4 67
32 35 64 -13 13 -40 31 -60 40 -21 10 -40 25 -43 33 -4 8 -12 15 -19 15 -7 0
-26 7 -41 15 -18 9 -23 15 -12 15 9 0 19 -4 23 -10 3 -5 12 -7 19 -4 7 3 20
-1 27 -8 8 -7 39 -29 69 -48 67 -43 78 -52 143 -115 41 -40 48 -50 34 -53 -13
-3 -16 -9 -12 -20 4 -10 13 -46 21 -82 15 -64 14 -67 -15 -169 -17 -57 -28
-108 -25 -113 13 -21 -110 -159 -171 -190 -61 -32 -140 -47 -244 -48 -89 0
-98 2 -175 39 -45 21 -92 47 -106 57 -31 24 -134 127 -179 178 l-34 40 -17
-21 c-25 -31 -39 -30 -94 3 -137 82 -221 164 -237 230 -35 153 -13 385 39 402
11 3 12 0 3 -16 -18 -33 -13 -40 22 -33 25 5 33 12 35 33 3 23 14 30 80 57 95
37 102 38 182 40 45 0 60 -2 50 -9z m1410 -5 c11 -13 10 -14 -4 -9 -9 3 -16
10 -16 15 0 13 6 11 20 -6z m55 -25 c8 -13 -5 -13 -25 0 -13 8 -13 10 2 10 9
0 20 -4 23 -10z m-205 -94 c0 -3 -4 -8 -10 -11 -5 -3 -10 -1 -10 4 0 6 5 11
10 11 6 0 10 -2 10 -4z m-70 -105 c0 -10 -50 -25 -58 -17 -3 3 6 10 19 15 31
13 39 13 39 2z m-73 -56 c-4 -8 -14 -14 -24 -14 -17 1 -17 2 0 6 9 2 17 12 17
20 0 9 3 14 6 10 4 -3 4 -13 1 -22z m-1166 -66 c-5 -13 -10 -19 -10 -12 -1 15
10 45 15 40 3 -2 0 -15 -5 -28z m959 -60 c0 -6 -4 -7 -10 -4 -5 3 -10 11 -10
16 0 6 5 7 10 4 6 -3 10 -11 10 -16z m599 -106 c42 -26 79 -52 83 -57 10 -15
5 -41 -7 -40 -6 1 -22 -7 -37 -17 -37 -27 -48 -24 -48 13 0 17 -7 38 -15 47
-79 87 -88 101 -63 101 6 0 45 -21 87 -47z m-1664 -13 c-3 -5 -27 -9 -53 -8
l-47 1 45 7 c25 4 49 8 53 8 5 1 5 -2 2 -8z m1555 -96 c0 -11 11 -47 24 -80
l23 -60 -31 -56 c-17 -31 -34 -59 -37 -63 -12 -12 -19 111 -9 170 5 33 10 78
10 100 0 30 3 36 10 25 5 -8 10 -24 10 -36z m-493 -41 c-3 -10 -5 -2 -5 17 0
19 2 27 5 18 2 -10 2 -26 0 -35z m704 18 c-6 -10 -17 -24 -26 -31 -34 -28
-138 -184 -157 -233 l-19 -52 30 33 c16 18 31 36 33 40 2 4 23 23 48 42 25 19
48 38 51 43 3 4 39 16 80 27 64 16 154 58 237 111 25 16 17 19 129 -52 50 -32
69 -38 138 -43 44 -3 98 -9 120 -12 130 -18 149 -36 195 -185 17 -55 -7 -50
-43 9 -64 103 -110 115 -223 57 -107 -54 -194 -125 -274 -221 -101 -122 -293
-318 -364 -371 -57 -42 -83 -50 -56 -18 7 9 11 17 9 20 -5 4 -67 -78 -126
-165 -17 -25 -56 -97 -87 -160 -53 -109 -56 -121 -66 -225 -6 -60 -15 -140
-20 -178 -6 -37 -10 -114 -10 -171 0 -102 0 -103 -35 -148 -34 -43 -38 -46
-97 -51 -34 -3 -66 -3 -71 0 -9 6 -4 67 23 238 27 173 38 268 44 370 8 134 34
320 52 368 9 23 27 82 40 130 12 48 32 107 43 130 10 23 34 83 51 132 38 106
108 243 225 440 32 53 118 153 128 148 4 -2 3 -12 -2 -22z m-721 -61 c-6 -11
-13 -20 -16 -20 -2 0 0 9 6 20 6 11 13 20 16 20 2 0 0 -9 -6 -20z m-983 -72
c2 -16 0 -19 -6 -9 -5 7 -15 17 -22 22 -11 7 -9 9 6 9 14 0 21 -7 22 -22z
m-274 -11 c10 -16 16 -63 20 -167 4 -129 8 -154 35 -226 38 -102 84 -193 89
-177 3 7 -16 73 -41 146 -44 127 -46 140 -46 242 0 85 3 106 12 97 7 -7 27
-12 45 -12 36 0 131 -23 162 -39 27 -15 87 -90 101 -126 8 -22 10 -114 5 -325
-5 -242 -3 -315 10 -410 9 -63 20 -151 25 -195 16 -149 47 -271 117 -463 25
-68 43 -125 41 -128 -10 -9 -143 -14 -173 -6 -24 7 -33 19 -52 68 -86 219
-152 454 -209 743 -12 65 13 26 142 -219 16 -30 36 -62 45 -71 9 -9 33 -57 54
-108 52 -126 71 -135 41 -20 -15 56 -115 291 -164 384 -14 28 -82 136 -151
240 -136 208 -173 281 -197 383 -21 87 -20 263 1 323 31 88 59 109 88 66z
m1604 -9 c-3 -8 -6 -5 -6 6 -1 11 2 17 5 13 3 -3 4 -12 1 -19z m-1247 -18 c0
-5 -6 -10 -14 -10 -8 0 -18 5 -21 10 -3 6 3 10 14 10 12 0 21 -4 21 -10z
m1224 -108 c-9 -42 -19 -72 -21 -65 -2 6 0 29 6 50 6 21 11 52 11 69 0 17 3
34 7 38 15 15 14 -17 -3 -92z m-1113 -88 c21 -32 48 -77 60 -99 12 -22 24 -42
28 -45 20 -16 125 -209 118 -216 -12 -12 -63 48 -114 134 -60 99 -153 275
-153 287 0 20 28 -8 61 -61z m2332 -49 c90 -139 142 -266 264 -640 25 -77 50
-145 55 -152 11 -13 9 -251 -2 -258 -4 -3 -7 -63 -5 -134 1 -72 -2 -128 -6
-125 -4 2 -13 21 -20 41 -7 21 -29 74 -49 118 -58 125 -90 232 -90 300 0 19
-4 56 -10 82 -5 26 -11 66 -14 88 -6 42 -39 256 -57 365 -6 36 -15 90 -19 120
-12 70 -33 133 -48 138 -8 2 -12 -8 -12 -27 0 -28 5 -57 30 -186 9 -45 18
-109 50 -360 5 -38 16 -146 25 -240 12 -124 24 -196 45 -265 38 -125 110 -352
116 -366 7 -16 -564 -30 -579 -15 -8 8 -6 25 6 64 28 84 113 394 136 492 11
50 25 160 31 245 6 85 15 209 20 275 5 66 14 206 20 310 6 105 13 200 16 213
4 22 5 22 28 5 13 -10 44 -49 69 -88z m-173 88 c0 -5 5 -80 10 -168 10 -158 2
-347 -20 -510 -5 -38 -10 -113 -11 -165 -1 -52 -8 -122 -16 -155 -8 -33 -18
-76 -22 -95 -13 -54 -57 -217 -81 -295 -12 -38 -24 -81 -27 -95 -2 -14 -7 -32
-10 -40 -3 -8 -8 -24 -10 -34 -4 -21 -21 -46 -32 -46 -4 0 -13 21 -20 46 -16
54 -11 249 14 529 20 222 55 514 71 583 2 13 1 21 -4 18 -28 -17 -100 -551
-103 -756 l-1 -95 -13 55 c-7 30 -23 123 -35 205 -11 83 -25 164 -30 181 -6
17 -10 43 -10 57 0 15 -9 85 -20 155 -12 70 -22 165 -24 210 -2 77 0 87 26
126 35 54 141 154 240 228 20 15 42 34 50 41 23 23 78 37 78 20z m-1059 -176
c-8 -8 -11 0 -10 29 1 39 1 39 11 11 7 -21 7 -32 -1 -40z m-697 -63 c25 -38
76 -166 70 -176 -11 -18 -34 -7 -39 20 -15 72 -43 139 -72 175 -18 21 -33 41
-33 44 0 10 59 -39 74 -63z m-929 -208 c9 -18 36 -57 60 -85 50 -58 47 -52 76
-186 37 -174 144 -563 179 -648 33 -81 82 -229 77 -234 -4 -3 -86 -6 -184 -7
l-177 -1 -13 55 c-13 57 -35 217 -52 382 -12 105 -15 646 -5 721 7 52 16 52
39 3z m2247 12 c3 -7 2 -200 -2 -428 -3 -228 -4 -421 -2 -428 2 -7 10 -11 16
-9 17 5 23 105 26 382 2 186 5 235 11 190 5 -33 13 -94 19 -135 5 -41 10 -225
10 -408 l0 -333 -102 0 c-57 -1 -141 -3 -187 -6 -46 -2 -87 -1 -92 4 -4 4 1
49 12 98 11 50 27 136 35 193 13 97 52 291 74 373 6 20 17 79 25 130 36 227
65 325 101 341 13 6 26 19 29 30 7 21 21 24 27 6z m-172 -174 c0 -3 -5 -15
-12 -27 -6 -12 -15 -76 -19 -142 -6 -105 -24 -253 -44 -365 -9 -55 -26 -141
-35 -185 -5 -22 -19 -89 -31 -150 -24 -119 -33 -138 -58 -130 -9 2 -73 5 -144
6 -70 1 -127 4 -127 7 0 2 14 22 31 44 30 37 32 45 41 166 5 70 16 161 24 202
21 100 74 271 91 291 7 8 13 22 13 30 0 20 47 87 84 119 62 54 171 140 179
140 4 0 7 -3 7 -6z m323 -849 c12 -126 12 -130 -6 -133 -28 -5 -35 12 -33 77
2 31 4 110 5 176 3 109 4 115 12 65 5 -30 15 -113 22 -185z m-1436 32 c2 -3
-4 -8 -15 -11 -23 -8 -76 10 -68 23 6 8 72 -1 83 -12z m-9 -69 c-3 -7 -11 -13
-18 -13 -7 0 -15 6 -17 13 -3 7 4 12 17 12 13 0 20 -5 18 -12z m72 -9 c0 -5
-7 -9 -15 -9 -15 0 -20 12 -9 23 8 8 24 -1 24 -14z m80 1 c0 -5 -7 -10 -15
-10 -8 0 -15 5 -15 10 0 6 7 10 15 10 8 0 15 -4 15 -10z m98 -27 c2 -9 -7 -13
-27 -13 -30 0 -39 9 -24 24 11 10 46 3 51 -11z m-248 -39 c0 -9 -7 -14 -17
-12 -25 5 -28 28 -4 28 12 0 21 -6 21 -16z m70 -4 c0 -5 -4 -10 -10 -10 -5 0
-10 5 -10 10 0 6 5 10 10 10 6 0 10 -4 10 -10z m85 0 c3 -5 -1 -10 -9 -10 -9
0 -16 5 -16 10 0 6 4 10 9 10 6 0 13 -4 16 -10z"/>
<path d="M4037 3537 c-103 -152 -171 -212 -337 -299 -50 -26 -24 -22 51 8 129
52 209 125 284 260 15 27 36 62 47 77 11 16 18 30 16 32 -3 3 -30 -32 -61 -78z"/>
<path d="M2757 2915 c-15 -8 -34 -12 -41 -9 -8 3 -34 -1 -58 -10 -25 -8 -72
-18 -106 -22 -43 -4 -77 -16 -110 -37 -42 -27 -57 -30 -147 -34 -153 -7 -188
-7 -210 0 -69 21 -81 20 -100 -10 -36 -54 -15 -205 34 -239 10 -7 21 -26 24
-41 9 -47 160 -191 217 -208 20 -6 16 -1 -17 26 -23 19 -42 38 -42 42 -1 5
-23 34 -49 65 -27 31 -59 74 -71 94 -12 21 -29 41 -37 46 -7 4 -21 38 -30 75
-16 64 -16 68 2 88 16 18 25 19 69 13 27 -4 68 -7 90 -6 22 1 78 4 125 6 66 2
102 10 161 34 42 17 114 36 160 42 46 6 104 20 128 31 24 10 52 19 62 19 25 0
24 26 0 40 -24 12 -21 13 -54 -5z"/>
<path d="M2786 2790 c-4 -36 -3 -67 3 -78 8 -14 11 -14 12 -2 0 8 4 4 8 -10 9
-30 3 -52 -13 -47 -15 5 -34 -53 -51 -163 -23 -145 -26 -166 -18 -150 3 8 13
22 22 30 9 8 27 47 40 85 13 39 27 75 32 80 11 15 32 123 36 192 4 52 1 68
-17 93 -33 46 -46 39 -54 -30z"/>
<path d="M2681 2774 c-11 -8 -30 -12 -44 -9 -15 4 -46 -5 -87 -24 -96 -46
-191 -64 -312 -59 -57 2 -111 8 -120 12 -24 11 -23 -9 1 -33 11 -11 36 -44 56
-73 19 -29 44 -64 55 -78 12 -14 40 -63 63 -110 l42 -85 3 38 c2 29 -7 58 -38
120 -23 45 -53 96 -66 114 -13 17 -24 35 -24 38 0 9 102 -3 109 -12 34 -47 65
-104 96 -179 20 -49 41 -97 46 -106 5 -10 9 -24 9 -32 0 -21 26 -27 84 -20 60
7 106 22 106 36 0 6 7 8 15 4 11 -4 15 2 16 27 2 143 11 220 40 354 5 23 9 51
9 61 0 25 -33 34 -59 16z m-34 -86 c-3 -7 -5 -2 -5 12 0 14 2 19 5 13 2 -7 2
-19 0 -25z m-180 -250 c-3 -8 -6 -5 -6 6 -1 11 2 17 5 13 3 -3 4 -12 1 -19z"/>
<path d="M2290 2574 c0 -9 70 -124 76 -124 7 0 -55 118 -66 125 -5 3 -10 3
-10 -1z"/>
<path d="M2308 2283 c7 -3 16 -2 19 1 4 3 -2 6 -13 5 -11 0 -14 -3 -6 -6z"/>
<path d="M2388 2263 c7 -3 16 -2 19 1 4 3 -2 6 -13 5 -11 0 -14 -3 -6 -6z"/>
<path d="M3765 2430 c-3 -6 1 -7 9 -4 18 7 21 14 7 14 -6 0 -13 -4 -16 -10z"/>
<path d="M3675 2360 c-3 -5 -1 -10 4 -10 6 0 11 5 11 10 0 6 -2 10 -4 10 -3 0
-8 -4 -11 -10z"/>
<path d="M3647 2323 c-4 -3 -7 -11 -7 -17 0 -6 5 -5 12 2 6 6 9 14 7 17 -3 3
-9 2 -12 -2z"/>
<path d="M3587 2276 c-4 -10 -5 -21 -2 -24 9 -9 17 6 13 25 -3 17 -4 17 -11
-1z"/>
<path d="M3423 1705 c-6 -19 -7 -33 -3 -30 12 7 30 65 21 65 -4 0 -12 -16 -18
-35z"/>
<path d="M3385 1619 c-4 -6 -5 -12 -2 -15 2 -3 7 2 10 11 7 17 1 20 -8 4z"/>
<path d="M3299 1481 c-43 -64 -67 -111 -56 -111 3 0 15 17 27 38 37 61 81 142
78 142 -2 0 -24 -31 -49 -69z"/>
<path d="M3228 1335 c-3 -14 -1 -25 3 -25 5 0 9 11 9 25 0 14 -2 25 -4 25 -2
0 -6 -11 -8 -25z"/>
<path d="M3206 1224 c-9 -25 -7 -64 4 -64 6 0 10 18 10 40 0 43 -4 50 -14 24z"/>
<path d="M1991 1514 c0 -11 3 -14 6 -6 3 7 2 16 -1 19 -3 4 -6 -2 -5 -13z"/>
<path d="M4172 1180 c0 -14 2 -19 5 -12 2 6 2 18 0 25 -3 6 -5 1 -5 -13z"/>
<path d="M4072 785 c0 -16 2 -22 5 -12 2 9 2 23 0 30 -3 6 -5 -1 -5 -18z"/>
<path d="M2591 4376 c-9 -11 -6 -15 16 -19 32 -6 43 -1 43 19 0 18 -44 19 -59
0z"/>
<path d="M2105 4342 c-102 -43 -125 -57 -156 -96 -26 -34 -17 -47 14 -19 41
39 150 103 173 103 13 0 26 5 29 10 3 6 15 10 26 10 10 0 19 7 19 15 0 20 -2
20 -105 -23z"/>
<path d="M1897 4183 c-10 -10 -8 -45 2 -39 11 7 21 46 12 46 -4 0 -11 -3 -14
-7z"/>
<path d="M1832 4111 c2 -14 9 -26 16 -29 17 -5 15 10 -3 34 -15 18 -15 18 -13
-5z"/>
<path d="M1761 4074 c0 -11 3 -14 6 -6 3 7 2 16 -1 19 -3 4 -6 -2 -5 -13z"/>
<path d="M2915 4060 c3 -5 8 -10 11 -10 2 0 4 5 4 10 0 6 -5 10 -11 10 -5 0
-7 -4 -4 -10z"/>
<path d="M3225 3980 c3 -5 8 -10 11 -10 2 0 4 5 4 10 0 6 -5 10 -11 10 -5 0
-7 -4 -4 -10z"/>
<path d="M3721 3719 c-13 -5 -22 -12 -19 -14 6 -6 58 12 58 20 0 7 -11 5 -39
-6z"/>
<path d="M3630 3683 c-49 -17 -92 -43 -72 -43 16 0 113 40 127 52 13 12 -2 9
-55 -9z"/>
<path d="M3450 3585 c-13 -14 -21 -27 -18 -30 2 -3 17 9 33 25 16 17 24 30 19
30 -6 0 -21 -11 -34 -25z"/>
<path d="M2955 3280 c-31 -32 -43 -50 -33 -50 17 0 88 73 88 90 0 15 -2 14
-55 -40z"/>
<path d="M1222 1878 c-95 -252 -92 -248 -158 -299 -113 -89 -136 -141 -138
-305 l-1 -120 -72 -89 c-101 -124 -107 -139 -99 -244 9 -116 17 -161 28 -161
6 0 7 9 3 22 -4 13 -10 74 -12 136 l-5 112 58 78 c122 160 123 164 116 280 -7
137 20 191 146 292 24 19 49 49 56 65 8 17 23 50 33 75 11 25 26 63 32 85 7
22 16 49 20 60 5 11 13 32 20 48 6 15 7 27 3 27 -4 0 -18 -28 -30 -62z"/>
<path d="M1055 750 c3 -5 13 -10 21 -10 8 0 12 5 9 10 -3 6 -13 10 -21 10 -8
0 -12 -4 -9 -10z"/>
<path d="M1140 735 c0 -6 56 -35 67 -35 14 1 -39 40 -53 40 -8 0 -14 -2 -14
-5z"/>
</g>
</svg>
